<?xml version="1.0" encoding="utf-8"?>
<!-- Generator: Adobe Illustrator 24.3.0, SVG Export Plug-In . SVG Version: 6.00 Build 0)  -->
<svg version="1.1" xmlns="http://www.w3.org/2000/svg" xmlns:xlink="http://www.w3.org/1999/xlink" x="0px" y="0px"
	 viewBox="0 0 500 66.3" style="enable-background:new 0 0 500 66.3;" xml:space="preserve">
<style type="text/css">
	.st0{display:none;}
	.st1{display:inline;stroke:#FFFFFF;stroke-miterlimit:10;}
	.st2{opacity:0.5;fill:#FFFFFF;enable-background:new    ;}
	.st3{fill:#FFFFFF;}
</style>
<g id="Vrstva_2" class="st0">
	<rect x="-10" y="-44.2" class="st1" width="510.1" height="155.7"/>
</g>
<g id="Vrstva_1">
	<g id="Layer_2">
		<path class="st2" d="M220,49.3c-3.3,0-6.5,0.8-9.4,2.3c-4.8-10.3-17.1-14.7-27.3-9.9c-2.7,1.3-5.1,3.1-7,5.4
			c-8.6-4.1-18.9-1.6-24.9,5.9C140.8,49,129,54.5,125,65.1s1.5,22.5,12.2,26.4c8.4,3.1,17.7,0.4,23.3-6.6c8.1,3,17.2,0.6,22.8-6
			c5.8,2.7,12.5,2.6,18.1-0.3c4.8,10.3,17.1,14.7,27.4,9.9c10.3-4.8,14.7-17.1,9.9-27.4C235.3,53.9,228,49.3,220,49.3z"/>
		<path class="st2" d="M80.6,38.6c-2.5,0-5,0.3-7.4,1c-9.1-9.8-23.7-12.2-35.4-5.6C27.2,22,8.9,21-3,31.6c-3.1,2.8-5.6,6.1-7.2,9.9
			c-15-5.5-31.6,2.2-37.1,17.2s2.2,31.6,17.2,37.1c14.3,5.2,30.2-1.5,36.4-15.5c7.9,2.9,16.7,2.2,24.1-2c7.2,8.1,18.4,11.5,29,8.7
			c10.8,11.7,29.1,12.5,40.8,1.6c11.7-10.8,12.5-29.1,1.6-40.8C96.4,41.9,88.6,38.6,80.6,38.6z"/>
	</g>
	<g id="Layer_1">
		<circle class="st3" cx="119.9" cy="62.1" r="13.9"/>
		<circle class="st3" cx="136.2" cy="53.6" r="13.9"/>
		<rect y="61.7" class="st3" width="500" height="36"/>
		<circle class="st3" cx="151.9" cy="59.3" r="13.9"/>
		<circle class="st3" cx="161.9" cy="67.8" r="13.9"/>
		<circle class="st3" cx="402.6" cy="70" r="23.6"/>
		<circle class="st3" cx="425.4" cy="48.5" r="23.6"/>
		<circle class="st3" cx="453.6" cy="50.6" r="23.6"/>
		<ellipse class="st3" cx="476.1" cy="60.9" rx="23.9" ry="23.6"/>
		<circle class="st3" cx="331.4" cy="60.4" r="34.1"/>
		<circle class="st3" cx="286.2" cy="36.4" r="34.1"/>
		<circle class="st3" cx="246.3" cy="60.1" r="34.1"/>
		<circle class="st3" cx="76.9" cy="63.4" r="13.7"/>
		<circle class="st3" cx="59.5" cy="53.8" r="13.7"/>
		<circle class="st3" cx="43.5" cy="49.8" r="13.7"/>
		<circle class="st3" cx="28.5" cy="54.8" r="13.7"/>
		<circle class="st3" cx="14.5" cy="63.8" r="13.7"/>
		<circle class="st3" cx="100.6" cy="60.3" r="11.6"/>
		<circle class="st3" cx="197.2" cy="59.7" r="23.6"/>
		<circle class="st3" cx="365.5" cy="57.8" r="23.6"/>
	</g>
	<g id="Layer_2_1_">
		<path class="st2" d="M419.7,43.5c-3.3,0-6.5,0.8-9.4,2.3c-4.8-10.3-17.1-14.7-27.3-9.9c-2.7,1.3-5.1,3.1-7,5.4
			c-8.6-4.1-18.9-1.6-24.9,5.9c-10.7-3.9-22.5,1.5-26.4,12.2c-3.9,10.7,1.5,22.5,12.2,26.4c8.4,3.1,17.7,0.4,23.3-6.6
			c8.1,3,17.2,0.6,22.8-6c5.8,2.7,12.5,2.6,18.1-0.3c4.8,10.3,17.1,14.7,27.4,9.9c10.3-4.8,14.7-17.1,9.9-27.4
			C434.9,48.1,427.7,43.5,419.7,43.5z"/>
		<path class="st2" d="M280.2,32.8c-2.5,0-5,0.3-7.4,1c-9.1-9.8-23.7-12.2-35.4-5.6c-10.6-11.9-28.9-13-40.8-2.4
			c-3.1,2.8-5.6,6.1-7.2,9.9c-15-5.5-31.6,2.2-37.1,17.2c-5.5,15,2.2,31.6,17.2,37.1c14.3,5.2,30.2-1.5,36.4-15.5
			c7.9,2.9,16.7,2.2,24.1-2c7.2,8.1,18.4,11.5,29,8.7c10.8,11.7,29.1,12.5,40.8,1.6c11.7-10.8,12.5-29.1,1.6-40.8
			C296,36.2,288.3,32.8,280.2,32.8z"/>
	</g>
	<g id="Layer_2_2_">
		<path class="st2" d="M583.3,27.5c-2.5,0-5,0.3-7.4,1c-9.1-9.8-23.7-12.2-35.4-5.6c-10.6-11.9-28.9-13-40.8-2.4
			c-3.1,2.8-5.6,6.1-7.2,9.9c-15-5.5-31.6,2.2-37.1,17.2c-5.5,15,2.2,31.6,17.2,37.1c14.3,5.2,30.2-1.5,36.4-15.5
			c7.9,2.9,16.7,2.2,24.1-2c7.2,8.1,18.4,11.5,29,8.7c10.8,11.7,29.1,12.5,40.8,1.6c11.7-10.8,12.5-29.1,1.6-40.8
			C599.1,30.8,591.3,27.5,583.3,27.5z"/>
	</g>
	<g id="Layer_2_3_">
		<path class="st2" d="M382.5,31.4c-3.1-1-6.4-1.2-9.7-0.6c-1.6-11.2-12-19.1-23.3-17.5c-2.9,0.4-5.7,1.5-8.2,3.1
			c-7.1-6.4-17.6-7.1-25.5-1.7c-9-6.9-21.9-5.1-28.8,3.9s-5.1,21.9,3.9,28.8c7.1,5.4,16.8,5.6,24.2,0.6c6.9,5.2,16.3,5.6,23.6,0.9
			c4.7,4.3,11.2,6.1,17.4,5c1.6,11.2,12,19.1,23.3,17.5c11.2-1.6,19.1-12,17.5-23.3C395.7,40.3,390.2,33.7,382.5,31.4z"/>
	</g>
</g>
</svg>
